<svg xmlns="http://www.w3.org/2000/svg" xmlns:xlink="http://www.w3.org/1999/xlink" width="84" height="84" viewBox="0 0 84 84" fill="none"><rect x="0" y="0" width="84" height="84"   fill="#CCCCCC" fill-opacity="0"></rect><path d="M80.5 6L56.5 17L31.5 17L21 28.5L46 28.5L3.5 79L29 67L52.5 67L63 55.5L39 55.5L80.5 6Z"   fill="url(#linear_fill_36_1)" ></path><path     fill="url(#linear_fill_35_1_1_0)"  d="M80.5 6L56.5 17L31.5 17L21 28.5L46 28.5L3.5 79C3.5 79 21 69 43 43C65 17 80.5 6 80.5 6Z"></path><defs><linearGradient id="linear_fill_36_1" x1="42" y1="6" x2="42" y2="79" gradientUnits="userSpaceOnUse"><stop offset="1" stop-color="#E89820"  /></linearGradient><linearGradient id="linear_fill_35_1_1_0" x1="42" y1="6" x2="42" y2="79" gradientUnits="userSpaceOnUse"><stop offset="0" stop-color="#F8CD40"  /><stop offset="1" stop-color="#F2AA23"  /></linearGradient></defs></svg>